<?xml version="1.0" encoding="utf-8"?>
<!-- Generator: Adobe Illustrator 21.0.2, SVG Export Plug-In . SVG Version: 6.00 Build 0)  -->
<svg version="1.1" id="Layer_1" xmlns="http://www.w3.org/2000/svg" xmlns:xlink="http://www.w3.org/1999/xlink" x="0px" y="0px"
	 viewBox="0 0 16 16" style="enable-background:new 0 0 16 16;" xml:space="preserve">
<style type="text/css">
	.st0{fill:#1F5182;}
</style>
<title>logo-icon</title>
<path class="st0" d="M1.5,7.6c0.2,0.1,0.7,0.3,1.4,0.3l0,0c0.3,0,0.6,0,0.9-0.1c0,0,0.1,0,0.1-0.1c0-0.5,0.2-1.1,0.4-1.5
	c0,0,0-0.1,0-0.1c0,0,0,0,0,0C4,5.9,3.7,5.7,3.5,5.6c-0.4-0.3-0.7-0.6-1-1c0,0-0.1,0-0.1,0c0,0,0,0,0,0.1C2.3,5.1,2.1,5.6,2,6
	C1.8,6.5,1.6,7,1.4,7.4C1.4,7.5,1.4,7.5,1.5,7.6C1.5,7.5,1.5,7.5,1.5,7.6L1.5,7.6L1.5,7.6z"/>
<path class="st0" d="M4.5,10.2C4.5,10.2,4.5,10.2,4.5,10.2C4.3,9.8,4.1,9.4,4,9C4,8.9,4,8.7,4,8.6c0,0,0,0,0-0.1H3.9
	c-0.3,0.1-0.6,0.1-1,0.1C2.4,8.7,2,8.6,1.5,8.5c0,0-0.1,0-0.1,0c0,0,0,0,0,0.1C1.7,9,1.8,9.5,2,9.9c0.2,0.5,0.3,1,0.4,1.5
	c0,0,0,0.1,0.1,0.1h0c0.3,0,0.8-0.2,1.3-0.6C4.1,10.7,4.3,10.5,4.5,10.2L4.5,10.2L4.5,10.2z"/>
<path class="st0" d="M8.6,1.9c0-0.1-0.1-0.1-0.1-0.1L4.9,1.1c-0.1,0-0.2,0-0.2,0.1c0,0,0,0.1,0,0.1l0.5,0.7c-0.3,0.3-0.6,0.5-1,0.8
	C3.9,3.2,3.4,3.5,3,3.7c0,0-0.1,0.1,0,0.1c0,0,0,0,0,0c0.1,0.3,0.4,0.7,1,1.1c0.3,0.2,0.5,0.3,0.8,0.5h0c0,0,0,0,0.1,0
	c0.4-0.4,0.8-0.8,1.3-1l0.2,0.9c0,0.1,0.1,0.1,0.1,0.1h0c0.1,0,0.1,0,0.2-0.1l1.9-3.2C8.7,2.1,8.7,2,8.6,1.9
	C8.6,1.9,8.6,1.9,8.6,1.9z"/>
<path class="st0" d="M6.4,11.8c-0.5-0.2-1-0.5-1.3-0.9l-0.1,0l-0.1,0c-0.2,0.2-0.5,0.4-0.7,0.6c-0.4,0.3-0.8,0.5-1.2,0.6
	c0,0-0.1,0.1,0,0.1c0,0,0,0,0,0c0.4,0.2,0.8,0.5,1.2,0.8c0.4,0.3,0.8,0.6,1.2,1l0.1,0l0,0c0.2-0.2,0.5-0.6,0.7-1.3
	C6.4,12.5,6.5,12.2,6.4,11.8C6.5,11.8,6.5,11.8,6.4,11.8L6.4,11.8L6.4,11.8z"/>
<path class="st0" d="M14.5,8.4c-0.2-0.1-0.7-0.3-1.4-0.3c-0.3,0-0.6,0-0.9,0.1c0,0-0.1,0-0.1,0.1c0,0.5-0.2,1.1-0.4,1.5
	c0,0,0,0.1,0,0.1c0,0,0,0,0,0c0.3,0.1,0.6,0.3,0.8,0.5c0.4,0.3,0.7,0.6,1,1c0,0,0,0,0.1,0h0c0,0,0.1,0,0.1-0.1
	C13.8,10.4,14.1,9.4,14.5,8.4C14.6,8.5,14.6,8.4,14.5,8.4C14.5,8.4,14.5,8.4,14.5,8.4L14.5,8.4L14.5,8.4z"/>
<path class="st0" d="M11.5,5.8C11.5,5.8,11.5,5.8,11.5,5.8C11.7,6.2,11.9,6.6,12,7c0,0.1,0,0.2,0.1,0.3c0,0,0,0,0,0.1h0.1
	c0.3-0.1,0.6-0.1,1-0.1c0.5,0,0.9,0.1,1.4,0.2h0c0,0,0.1,0,0.1-0.1c0,0,0,0,0-0.1C14.3,6.9,14.2,6.5,14,6c-0.2-0.5-0.3-1-0.4-1.5
	c0,0,0-0.1-0.1-0.1c0,0,0,0,0,0c-0.3,0-0.8,0.2-1.3,0.6C11.9,5.3,11.7,5.5,11.5,5.8L11.5,5.8L11.5,5.8z"/>
<path class="st0" d="M9.6,4.2c0.5,0.2,1,0.5,1.3,0.9l0.1,0l0,0l0.1,0c0.2-0.2,0.5-0.4,0.7-0.6c0.4-0.3,0.8-0.5,1.2-0.6
	c0,0,0.1-0.1,0-0.1c0,0,0,0,0,0c-0.4-0.2-0.8-0.5-1.2-0.8c-0.4-0.3-0.8-0.6-1.2-1c0,0-0.1,0-0.1,0c-0.2,0.2-0.5,0.6-0.7,1.3
	C9.6,3.5,9.5,3.8,9.6,4.2C9.5,4.2,9.5,4.2,9.6,4.2L9.6,4.2z"/>
<path class="st0" d="M12,11.1c-0.3-0.2-0.5-0.3-0.8-0.5c0,0-0.1,0-0.1,0c-0.4,0.4-0.8,0.8-1.3,1l-0.2-0.9c0-0.1-0.1-0.2-0.2-0.1
	c0,0-0.1,0-0.1,0.1l-1.9,3.2c0,0.1,0,0.2,0.1,0.2c0,0,0,0,0,0l3.6,0.8h0c0.1,0,0.2-0.1,0.2-0.2c0,0,0-0.1,0-0.1l-0.5-0.7
	c0.3-0.3,0.6-0.5,1-0.8c0.4-0.3,0.8-0.6,1.3-0.8c0,0,0.1-0.1,0-0.1c0,0,0,0,0,0C12.9,11.9,12.6,11.5,12,11.1L12,11.1L12,11.1z"/>
</svg>
